<svg xmlns="http://www.w3.org/2000/svg" width="159.70667" height="159.70667"><defs><clipPath id="a"><path d="M0 1197.78V0h1197.79v1197.78"/></clipPath></defs><g clip-path="url(#a)" transform="matrix(.13333 0 0 -.13333 0 159.707)"><path fill="#ed145d" d="M0 0h1197.79v1197.78H0z"/><path fill="#fff" d="M97.9492 606.926v173.379h45.2268V646.316h54.75v-39.39H97.9492M283.559 748.617c40.011 0 68.308-26.476 68.308-76.058 0-3.407.262-5.215 0-8.348h-97.769c3.668-16.578 16.754-24.465 32.66-24.465 13.769 0 22.797 9.703 29.996 19.211 0 0 25.191-14.457 32.859-19.211-12.175-21.726-35.765-36.219-64.965-36.219-42.75 0-72.164 26.016-72.164 72.657 0 42.093 30.09 72.433 71.075 72.433zm-27.86-55.031h52.719c-4.949 13.375-12.195 19.707-25.32 19.707-14.231 0-22.219-6.77-27.399-19.707m190.563 55.031c42.136 0 74.922-30.34 74.922-72.234 0-42.285-30.524-74.207-75.832-74.207-42.582 0-75.118 34.828-75.118 73.554 0 41.625 33.243 72.887 76.028 72.887zm-33.953-73.586c0-18.551 14.277-33.043 33.507-33.043 20.829 0 33.504 13.364 33.504 35.121 0 17.864-13.582 31.895-33.261 31.895-20.379 0-33.75-14.926-33.75-33.973m125.578-68.105V745.91h42.156v-18.156s13.352 20.863 40.523 20.863c27.579 0 50.012-19.937 50.012-46.183v-95.508H627.09v81.472c0 11.524-3.172 22.422-21.707 22.422-13.59 0-24.879-11.093-24.879-24.461v-79.433h-42.617m220.062 141.691c16.953 0 27.598-5.648 40.02-17.004v14.297h41.699V606.926h-42.344V620.5s-15.144-16.973-41.719-16.973c-38.64 0-65.136 27.637-65.136 72.203 0 38.684 28.769 72.887 67.48 72.887zm-24.687-72.234c0-19.215 12.246-35.094 31.699-35.094 18.769 0 34.387 13.84 34.387 34.004 0 20.34-14.465 34.367-33.039 34.367-20.184 0-33.047-14.918-33.047-33.277m176.308-5.414v-64.043h-42.519V745.91h40.969v-21.953c3.386 10.398 16.277 24.66 33.015 24.66h9.492v-43.472s-5.175 2.734-14.675 2.734c-16.301 0-26.282-9.969-26.282-36.91m154.37-64.043v14.496c-12.89-12.68-26.24-17.895-44.62-17.895-39.144 0-63.109 33.047-63.109 71.766 0 37.769 25.801 73.324 66.779 73.324 24.24 0 40.29-15.847 40.29-15.847v47.535h41.86V606.926zm-32.8 34.176c21.95 0 34.16 15.117 34.16 34.39 0 19.481-13.11 33.973-32.83 33.973-21.25 0-33.454-15.879-33.454-33.547 0-19.207 12.864-34.816 32.124-34.816m-853.285-92.118c18.258 0 29.583-2.246 45.723-10.886v-47.043c-10.433 8.574-21.973 15.156-43.508 15.156-29.382 0-45.691-21.523-45.691-50.906 0-27.864 20.617-46.379 48-46.379 16.703 0 29.183 6.535 40.687 14.219v-45.516c-14.242-6.34-25.55-11.524-43.691-11.524-49.98 0-90.668 36.25-90.668 89.696 0 55.39 38.246 93.183 89.148 93.183m67.86-178.359v173.418h42.137v-52.52s13.285 20.793 40.523 20.793c27.598 0 49.996-19.941 49.996-46.125v-95.566h-43.41v81.477c0 11.55-3.238 22.449-21.773 22.449-13.602 0-24.907-11.133-24.907-24.461v-79.465h-42.566m220.93 141.691c40.078 0 68.335-26.476 68.335-76.066 0-3.398.231-5.215 0-8.34h-97.796c3.679-16.582 16.738-24.472 32.644-24.472 13.801 0 22.785 9.746 30.094 19.25 0 0 25.121-14.493 32.797-19.25-12.196-21.719-35.715-36.211-64.934-36.211-42.801 0-72.215 26.054-72.215 72.656 0 42.129 30.11 72.433 71.075 72.433zm-27.844-55.031h52.703c-4.969 13.399-12.184 19.707-25.301 19.707-14.277 0-22.203-6.765-27.402-19.707m159.793 55.031c19.883 0 36.875-11.066 45.488-30.539l-31.883-14.062s-5.019 10.859-17.254 10.859c-6.781 0-11.105-2.929-11.105-8.347 0-15.657 64.109-9.278 64.109-56.848 0-30.106-26.258-46.152-55.707-46.152-23.293 0-40.523 8.613-51.332 28.984l32.332 16.309s7.012-12.208 19.492-12.208c6.758 0 14.903 3.126 14.903 9.7 0 17.195-62.254 8.152-62.254 57.078 0 26.867 22.363 45.226 53.211 45.226m65.664-141.691v173.418h42.043v-52.52s13.387 20.793 40.515 20.793c27.637 0 50.051-19.941 50.051-46.125v-95.566H753.41v81.477c0 11.55-3.125 22.449-21.711 22.449-13.633 0-24.961-11.133-24.961-24.461v-79.465h-42.48m173.34 199.855c14.035 0 25.586-11.085 25.586-25.117 0-14.269-11.551-25.793-26.075-25.793-13.73 0-24.824 11.067-24.824 25.352 0 14.043 11.328 25.558 25.313 25.558zm-21.289-199.855v138.984h42.109V370.625h-42.109m108.644 64.082v-64.082h-42.551v138.984h40.969v-21.953c3.426 10.43 16.258 24.66 33.074 24.66h9.473v-43.449s-5.164 2.715-14.668 2.715c-16.328 0-26.297-9.98-26.297-36.875m118.847 77.609c40.08 0 68.33-26.476 68.33-76.066 0-3.398.24-5.215 0-8.34h-97.76c3.63-16.582 16.77-24.472 32.62-24.472 13.76 0 22.83 9.746 30.1 19.25 0 0 25.11-14.493 32.79-19.25-12.2-21.719-35.71-36.211-64.92-36.211-42.77 0-72.233 26.054-72.233 72.656 0 42.129 30.113 72.433 71.073 72.433zm-27.82-55.031h52.72c-4.96 13.399-12.2 19.707-25.35 19.707-14.24 0-22.21-6.765-27.37-19.707M248.188 301.828c0 6.766 5.761 12.508 12.46 12.508 6.805 0 12.516-5.742 12.516-12.508 0-6.769-5.711-12.48-12.516-12.48-6.699 0-12.46 5.711-12.46 12.48m20.683-31.426v-133.14h-16.586v133.14h16.586m82.961-100.031c0 10.438-6.457 19.469-17.336 24.141l-22.098 10.129c-19.195 9.05-23.222 23.504-23.222 34.031 0 20.344 16.14 35.168 38.476 35.168 15.797 0 28.453-8.652 34.891-22.883-3.418-1.551-9.969-4.453-12.988-5.781-4.739 9.679-12.481 15.195-22.336 15.195-12.36 0-21.688-8.75-21.688-20.34 0-14.621 12.891-20.429 23.223-25.019l13.523-6.379c16.719-7.656 25.961-20.403 25.961-35.824 0-26.071-21.871-39.61-43.492-39.61-17.957 0-32.351 8.852-40.437 24.031 3.347 1.79 10.261 5.418 13.48 7.161 3.203-6.102 11.047-17.129 26.492-17.129 16.805 0 27.551 9.047 27.551 23.109m94.516 105.645c17.031 0 27.66-5.645 40.109-16.973v14.258h41.645V134.32h-42.321v13.641s-15.191-17.012-41.617-17.012c-38.703 0-65.226 27.602-65.226 72.176 0 38.723 28.769 72.891 67.41 72.891zm-24.614-72.196c0-19.211 12.196-35.07 31.696-35.07 18.797 0 34.394 13.809 34.394 33.945 0 20.403-14.472 34.395-33.062 34.395-20.09 0-33.028-14.922-33.028-33.27m167.422 103.914v-47.527s18.539 15.809 42.797 15.809c40.938 0 65.207-34.629 65.207-72.403 0-38.683-24.746-72.664-63.84-72.664-18.359 0-31.914 5.192-44.859 17.891v-14.52h-41.164v173.414zm-1.109-104.121c0-21.523 14.25-35.351 36.203-35.351 20.566 0 30.984 16.539 30.984 36.25 0 17.656-13.789 32.578-32.8 32.578-19.7 0-34.387-13.328-34.387-33.477M730.801 334.18c14.004 0 25.566-11.094 25.566-25.086 0-14.258-11.562-25.813-26.035-25.813-13.816 0-24.902 11.094-24.902 25.352 0 14.062 11.34 25.547 25.371 25.547zm-21.278-199.86v138.981h42.079V134.32h-42.079m67.86 0h42.0703v173.414H777.383zm86.953 199.86c14.043 0 25.598-11.094 25.598-25.086 0-14.258-11.555-25.813-26.047-25.813-13.809 0-24.891 11.094-24.891 25.352 0 14.062 11.297 25.547 25.34 25.547zm-21.25-199.86v138.981h42.07V134.32h-42.07m70.176 0v100.719h-13.789v38.262h13.789v34.433h42.383v-34.433h24.531v-38.485h-24.531V134.32h-42.383"/><path fill="#fff" d="M1008.58 273.301l30.37-71.699 29.18 71.699h43.65l-80.8-188.0705h-44.554L1017.6 152.91l-55.85 120.391h46.83m-863.635 31.504h-41.711V137.262h47.207c48.446 0 82.348 34.34 82.348 83.519 0 55.168-44.172 84.024-87.844 84.024zm8.828-151.426h-32.796v134.816h30.109c35.832 0 62.902-28.957 62.902-67.414 0-39.051-25.32-67.402-60.215-67.402"/></g></svg>